<svg id="Layer_1" data-name="Layer 1" xmlns="http://www.w3.org/2000/svg" viewBox="0 0 53.803 63.075"><path d="M-153.5-164.887c-.975.227-1.478.313-1.961.461q-4.293,1.314-8.577,2.655a10.742,10.742,0,0,0-1.27.449,4.108,4.108,0,0,0-2.5,4.355,13.538,13.538,0,0,0,1.38,4.284c2.419.218,4.808.07,7.191.1s4.794.006,7.191.006h21.8c2.4,0,4.794-.013,7.19,0s4.772-.078,7.143.059a4.229,4.229,0,0,1,.347,2.5q.022,11.8.009,23.6,0,4.044,0,8.09a15.542,15.542,0,0,1-.056,1.794,4.787,4.787,0,0,1-3.858,4.146,13.9,13.9,0,0,1-2.459.153q-19.776.014-39.551,0a15.341,15.341,0,0,1-2.24-.1,4.836,4.836,0,0,1-4.192-4.573c-.045-.672-.018-1.348-.018-2.022,0-10.262-.016-20.524.016-30.787a11.966,11.966,0,0,0-.7-4.4,13.183,13.183,0,0,1-.525-1.717,5.658,5.658,0,0,1,3.913-7.083c4.907-1.6,9.851-3.092,14.782-4.624q11.575-3.6,23.151-7.194a7.024,7.024,0,0,1,4.39-.347,5.42,5.42,0,0,1,3.509,2.934,22.578,22.578,0,0,1,1.611,5.248c-.324.758-.961.806-1.52.98q-12.216,3.805-24.432,7.609-6,1.868-12.006,3.724a1.518,1.518,0,0,1-.212.073c-.773.118-1.625.928-2.29.228-.732-.771.183-1.518.522-2.2,1.066-2.145,2.21-4.25,3.309-6.378C-154.148-163.384-153.93-163.935-153.5-164.887Zm-1.994,8.581,5.549-1.6c1.6-3.147,3.264-6.128,4.95-9.616a44.257,44.257,0,0,0-6.271,1.875c-1.1,2.1-2.178,4.137-3.229,6.193-.472.923-.883,1.879-1.321,2.82l-.232.334Zm25.855-8.32c.518.4,1.018.045,1.483-.093,2.437-.724,4.861-1.49,7.285-2.256.419-.133.817-.335,1.289-.532A12.06,12.06,0,0,0-120.8-171.6a3.725,3.725,0,0,0-2.554-2.033c-1.281-.309-1.741-.212-2.348,1-1.2,2.41-2.493,4.775-3.728,7.168a3.452,3.452,0,0,0-.191.847l-.247.226.185.047Zm1.693-8.2-5.817,1.63c-2.443,4.108-4.348,7.929-4.794,9.651,2.083-.5,4.027-1.185,5.98-1.831a1.581,1.581,0,0,0,.747-.764c1.443-2.769,2.856-5.554,4.276-8.335l-.027-.557Zm-8.377,2.85c-.425-.354-.863-.1-1.266.018-1.36.4-2.691.9-4.064,1.24a2.58,2.58,0,0,0-1.784,1.518c-1.25,2.462-2.546,4.9-3.807,7.356-.146.284-.5.586-.027,1.075l6.245-1.955c1.549-2.95,3.043-5.788,4.523-8.633a2.368,2.368,0,0,0,.131-.647.889.889,0,0,0,.136-.123c.01-.013-.032-.065-.05-.1ZM-166.4-141.7c-.032.588-.068.951-.068,1.315q-.006,11.223,0,22.447c0,.224-.006.449.009.673a3.493,3.493,0,0,0,3.6,3.51c.373.021.748.007,1.122.007h39.956c.524,0,1.051.017,1.57-.031a3.236,3.236,0,0,0,2.892-2.155,5.634,5.634,0,0,0,.285-1.971q.027-11.225,0-22.448a12.436,12.436,0,0,0-.15-1.346Zm8.02-9.41c-2.435.051-5.175-.14-7.882.112a30.639,30.639,0,0,0,.047,7.593c1.734.149,3.512.075,5.286.053a3.352,3.352,0,0,0,.893-.344c-.991-1-1.839-1.83-2.656-2.69a3.918,3.918,0,0,1-.607-.912c-.144-.278.328-.839.619-.729a2.789,2.789,0,0,1,.942.533c1.132,1.087,2.25,2.189,3.334,3.323a2.471,2.471,0,0,0,1.967.855c1.643-.041,3.288-.008,4.932-.034a2.425,2.425,0,0,0,.723-.257Zm41.25,7.617a21.191,21.191,0,0,0,.087-3.854c-.04-1.232.291-2.511-.252-3.681-4.554-.269-9.454-.173-11.1.244.3.376.543.725.835,1.021,1.418,1.437,2.85,2.861,4.278,4.289,2.266,2.265,2.266,2.265,5.462,2.125A6.238,6.238,0,0,0-117.135-143.491Zm-24.533.04-7.692-7.662h-5.366c-.293,0-.6-.015-.658.5,2.168,2.172,4.377,4.405,6.616,6.608a2.021,2.021,0,0,0,1.133.625c1.493.08,2.993.054,4.49.049C-142.726-143.33-142.306-143.4-141.668-143.451Zm-4.566-7.343a1.384,1.384,0,0,0,.207.5c2.1,2.125,4.216,4.23,6.313,6.357a2.072,2.072,0,0,0,1.608.617c1.494-.015,2.987,0,4.481-.017.268,0,.617.068.723-.331a69.253,69.253,0,0,0-7.326-7.384c-1.958,0-3.9,0-5.837.007C-146.1-151.046-146.144-150.932-146.234-150.794Zm8.725-.237a6.038,6.038,0,0,0,.516.834c2.04,2.063,4.1,4.107,6.128,6.183a2.288,2.288,0,0,0,1.8.694c1.488-.019,2.977,0,4.465-.019.274,0,.61.04.709-.35a72.225,72.225,0,0,0-7.278-7.342Z" transform="translate(169.343 175.304)" fill="#485465"></path><path d="M-119.006-130.035v5.538c0,1.947,0,3.893,0,5.84a9.853,9.853,0,0,1-.069,1.567,1.54,1.54,0,0,1-1.343,1.324,6.214,6.214,0,0,1-1.118.062q-7.187,0-14.373-.006a1.551,1.551,0,0,1-.4-.113c-.2-.368.082-.556.3-.732q7.953-6.414,15.918-12.813A12.787,12.787,0,0,1-119.006-130.035Z" transform="translate(169.343 175.304)" fill="#1dc3ca"></path></svg>